<svg width="24" height="24" viewBox="0 0 24 24" fill="none" xmlns="http://www.w3.org/2000/svg">
<path fill-rule="evenodd" clip-rule="evenodd" d="M12 3C9.55575 3 9.24926 3.01036 8.28931 3.05416C7.33137 3.09785 6.67712 3.25001 6.10466 3.47251C5.51283 3.70247 5.01092 4.01021 4.51055 4.51055C4.01021 5.01092 3.70247 5.51283 3.47251 6.10466C3.25001 6.67712 3.09785 7.33137 3.05416 8.28931C3.01036 9.24926 3 9.55575 3 12C3 14.4443 3.01036 14.7507 3.05416 15.7107C3.09785 16.6686 3.25001 17.3229 3.47251 17.8953C3.70247 18.4872 4.01021 18.9891 4.51055 19.4895C5.01092 19.9898 5.51283 20.2975 6.10466 20.5275C6.67712 20.75 7.33137 20.9021 8.28931 20.9458C9.24926 20.9896 9.55575 21 12 21C14.4443 21 14.7507 20.9896 15.7107 20.9458C16.6686 20.9021 17.3229 20.75 17.8953 20.5275C18.4872 20.2975 18.9891 19.9898 19.4895 19.4895C19.9898 18.9891 20.2975 18.4872 20.5275 17.8953C20.75 17.3229 20.9021 16.6686 20.9458 15.7107C20.9896 14.7507 21 14.4443 21 12C21 9.55575 20.9896 9.24926 20.9458 8.28931C20.9021 7.33137 20.75 6.67712 20.5275 6.10466C20.2975 5.51283 19.9898 5.01092 19.4895 4.51055C18.9891 4.01021 18.4872 3.70247 17.8953 3.47251C17.3229 3.25001 16.6686 3.09785 15.7107 3.05416C14.7507 3.01036 14.4443 3 12 3ZM12.0005 4.62158C14.4035 4.62158 14.6882 4.63076 15.6372 4.67406C16.5147 4.71408 16.9913 4.86069 17.3084 4.98395C17.7285 5.14721 18.0283 5.34224 18.3432 5.65719C18.6582 5.97211 18.8532 6.27192 19.0165 6.69202C19.1397 7.00916 19.2863 7.4857 19.3264 8.36319C19.3697 9.3122 19.3788 9.59687 19.3788 12C19.3788 14.4031 19.3697 14.6877 19.3264 15.6367C19.2863 16.5142 19.1397 16.9908 19.0165 17.3079C18.8532 17.728 18.6582 18.0278 18.3432 18.3427C18.0283 18.6577 17.7285 18.8527 17.3084 19.016C16.9913 19.1392 16.5147 19.2859 15.6372 19.3259C14.6884 19.3692 14.4037 19.3783 12.0005 19.3783C9.59718 19.3783 9.31259 19.3692 8.36368 19.3259C7.48619 19.2859 7.00964 19.1392 6.69251 19.016C6.27241 18.8527 5.9726 18.6577 5.65768 18.3427C5.34276 18.0278 5.1477 17.728 4.98443 17.3079C4.86118 16.9908 4.71456 16.5142 4.67455 15.6367C4.63125 14.6877 4.62207 14.4031 4.62207 12C4.62207 9.59687 4.63125 9.3122 4.67455 8.36319C4.71456 7.4857 4.86118 7.00916 4.98443 6.69202C5.1477 6.27192 5.34273 5.97211 5.65768 5.65719C5.9726 5.34224 6.27241 5.14721 6.69251 4.98395C7.00964 4.86069 7.48619 4.71408 8.36368 4.67406C9.31269 4.63076 9.59735 4.62158 12.0005 4.62158ZM7.37793 12.0001C7.37793 9.44757 9.44708 7.37842 11.9996 7.37842C14.552 7.37842 16.6212 9.44757 16.6212 12.0001C16.6212 14.5525 14.552 16.6217 11.9996 16.6217C9.44708 16.6217 7.37793 14.5525 7.37793 12.0001ZM12 15C10.3431 15 9 13.6569 9 12C9 10.3431 10.3431 9 12 9C13.6569 9 15 10.3431 15 12C15 13.6569 13.6569 15 12 15ZM16.8046 8.27573C17.4011 8.27573 17.8846 7.79222 17.8846 7.19574C17.8846 6.59927 17.4011 6.11572 16.8046 6.11572C16.2082 6.11572 15.7246 6.59927 15.7246 7.19574C15.7246 7.79222 16.2082 8.27573 16.8046 8.27573Z" fill="white" fill-opacity="0.85"/>
</svg>
