<svg width="42" height="9" viewBox="0 0 42 9" fill="none" xmlns="http://www.w3.org/2000/svg">
<path d="M41 4C41.2761 4 41.5 4.22386 41.5 4.5C41.5 4.77614 41.2761 5 41 5V4ZM0.646446 4.85355C0.451183 4.65829 0.451183 4.34171 0.646446 4.14645L3.82843 0.964466C4.02369 0.769204 4.34027 0.769204 4.53553 0.964466C4.7308 1.15973 4.7308 1.47631 4.53553 1.67157L1.70711 4.5L4.53553 7.32843C4.7308 7.52369 4.7308 7.84027 4.53553 8.03553C4.34027 8.2308 4.02369 8.2308 3.82843 8.03553L0.646446 4.85355ZM41 5H1V4H41V5Z" fill="white" fill-opacity="0.85"/>
</svg>
