<svg width="42" height="9" viewBox="0 0 42 9" fill="none" xmlns="http://www.w3.org/2000/svg">
<path d="M1 4C0.723858 4 0.5 4.22386 0.5 4.5C0.5 4.77614 0.723858 5 1 5V4ZM41.3536 4.85355C41.5488 4.65829 41.5488 4.34171 41.3536 4.14645L38.1716 0.964466C37.9763 0.769204 37.6597 0.769204 37.4645 0.964466C37.2692 1.15973 37.2692 1.47631 37.4645 1.67157L40.2929 4.5L37.4645 7.32843C37.2692 7.52369 37.2692 7.84027 37.4645 8.03553C37.6597 8.2308 37.9763 8.2308 38.1716 8.03553L41.3536 4.85355ZM1 5H41V4H1V5Z" fill="white" fill-opacity="0.85"/>
</svg>
