<svg width="28" height="28" viewBox="0 0 28 28" fill="none" xmlns="http://www.w3.org/2000/svg">
<path d="M14 8.75C12.9616 8.75 11.9466 9.05791 11.0833 9.63478C10.2199 10.2117 9.54699 11.0316 9.14963 11.9909C8.75227 12.9502 8.64831 14.0058 8.85088 15.0242C9.05345 16.0426 9.55346 16.9781 10.2877 17.7123C11.0219 18.4465 11.9574 18.9466 12.9758 19.1491C13.9942 19.3517 15.0498 19.2477 16.0091 18.8504C16.9684 18.453 17.7883 17.7801 18.3652 16.9167C18.9421 16.0534 19.25 15.0384 19.25 14C19.25 12.6076 18.6969 11.2723 17.7123 10.2877C16.7277 9.30312 15.3924 8.75 14 8.75ZM14 17.5C13.3078 17.5 12.6311 17.2947 12.0555 16.9101C11.4799 16.5256 11.0313 15.9789 10.7664 15.3394C10.5015 14.6999 10.4322 13.9961 10.5673 13.3172C10.7023 12.6383 11.0356 12.0146 11.5251 11.5251C12.0146 11.0356 12.6383 10.7023 13.3172 10.5673C13.9961 10.4322 14.6999 10.5015 15.3394 10.7664C15.9789 11.0313 16.5256 11.4799 16.9101 12.0555C17.2947 12.6311 17.5 13.3078 17.5 14C17.4971 14.9274 17.1274 15.8159 16.4717 16.4717C15.8159 17.1274 14.9274 17.4971 14 17.5ZM18.8125 3.0625H9.1875C7.56305 3.0625 6.00513 3.70781 4.85647 4.85647C3.70781 6.00513 3.0625 7.56305 3.0625 9.1875V18.8125C3.0625 20.437 3.70781 21.9949 4.85647 23.1435C6.00513 24.2922 7.56305 24.9375 9.1875 24.9375H18.8125C20.437 24.9375 21.9949 24.2922 23.1435 23.1435C24.2922 21.9949 24.9375 20.437 24.9375 18.8125V9.1875C24.9375 7.56305 24.2922 6.00513 23.1435 4.85647C21.9949 3.70781 20.437 3.0625 18.8125 3.0625ZM23.1875 18.8125C23.1875 19.387 23.0743 19.9559 22.8545 20.4867C22.6346 21.0175 22.3123 21.4998 21.9061 21.9061C21.4998 22.3123 21.0175 22.6346 20.4867 22.8545C19.9559 23.0743 19.387 23.1875 18.8125 23.1875H9.1875C8.61297 23.1875 8.04406 23.0743 7.51326 22.8545C6.98246 22.6346 6.50016 22.3123 6.09391 21.9061C5.68765 21.4998 5.36539 21.0175 5.14553 20.4867C4.92566 19.9559 4.8125 19.387 4.8125 18.8125V9.1875C4.8125 8.02718 5.27344 6.91438 6.09391 6.09391C6.91438 5.27344 8.02718 4.8125 9.1875 4.8125H18.8125C19.387 4.8125 19.9559 4.92566 20.4867 5.14553C21.0175 5.36539 21.4998 5.68765 21.9061 6.09391C22.3123 6.50016 22.6346 6.98246 22.8545 7.51326C23.0743 8.04406 23.1875 8.61297 23.1875 9.1875V18.8125ZM21 8.3125C21 8.57209 20.923 8.82585 20.7788 9.04169C20.6346 9.25752 20.4296 9.42575 20.1898 9.52509C19.9499 9.62443 19.686 9.65042 19.4314 9.59978C19.1768 9.54914 18.943 9.42413 18.7594 9.24058C18.5759 9.05702 18.4509 8.82316 18.4002 8.56856C18.3496 8.31396 18.3756 8.05006 18.4749 7.81023C18.5742 7.5704 18.7425 7.36542 18.9583 7.2212C19.1742 7.07698 19.4279 7 19.6875 7C20.0356 7 20.3694 7.13828 20.6156 7.38442C20.8617 7.63056 21 7.9644 21 8.3125Z" fill="black"/>
</svg>
